<svg width="24" height="24" viewBox="0 0 24 24" fill="none" xmlns="http://www.w3.org/2000/svg">
<circle cx="12" cy="12" r="12" fill="#2E2E2E"/>
<path d="M12.791 18C15.498 18 17.1416 16.6289 17.1416 14.3965C17.1416 12.7178 15.9375 11.4785 14.2148 11.3115V11.2412C15.5156 11.0303 16.5264 9.84375 16.5264 8.48145C16.5264 6.55664 15.041 5.31738 12.7383 5.31738H7.47363V18H12.791ZM9.74121 7.08398H12.167C13.5205 7.08398 14.2852 7.70801 14.2852 8.81543C14.2852 9.99316 13.3975 10.6611 11.8154 10.6611H9.74121V7.08398ZM9.74121 16.2334V12.2695H12.1758C13.916 12.2695 14.8301 12.9463 14.8301 14.2383C14.8301 15.5391 13.9424 16.2334 12.2725 16.2334H9.74121Z" fill="white"/>
</svg>
